<?xml version="1.0" standalone="no"?> <!DOCTYPE svg PUBLIC "-//W3C//DTD SVG 20010904//EN" "http://www.w3.org/TR/2001/REC-SVG-20010904/DTD/svg10.dtd"> <svg version="1.0" xmlns="http://www.w3.org/2000/svg" width="500.000000pt" height="197.000000pt" viewBox="0 0 500.000000 197.000000" preserveAspectRatio="xMidYMid meet"> <g transform="translate(0.000000,197.000000) scale(0.100000,-0.100000)" fill="#fb3c59" stroke="none"> <path d="M3080 1552 c-41 -2 -80 -8 -87 -14 -10 -8 -13 -110 -13 -489 0 -463 1 -479 19 -489 24 -12 160 -13 180 -1 12 8 16 347 11 977 0 16 -23 19 -110 16z"/> <path d="M4083 1488 c-13 -21 -3 -641 12 -703 32 -140 141 -232 287 -243 80 -6 88 5 88 112 0 77 -13 97 -67 101 -93 7 -113 44 -113 210 l0 126 74 -2 c100 -4 106 2 106 107 0 110 -7 118 -106 109 l-74 -7 0 95 c0 77 -3 96 -16 101 -31 12 -182 7 -191 -6z"/> <path d="M699 1296 c-83 -29 -138 -78 -182 -160 -26 -49 -41 -542 -17 -572 18 -20 173 -20 190 1 9 10 12 81 14 251 l1 236 28 24 c38 33 96 33 134 0 l28 -24 0 -235 c0 -283 -7 -267 116 -267 115 0 109 -15 109 274 l0 235 26 20 c39 31 103 28 135 -5 24 -25 24 -27 27 -262 2 -149 7 -241 14 -249 17 -21 184 -18 196 4 9 15 7 360 -2 479 -18 221 -311 348 -476 207 l-40 -35 -40 35 c-65 55 -176 74 -261 43z"/> <path d="M1851 1294 c-248 -89 -337 -387 -180 -596 112 -150 358 -200 469 -95 34 32 36 46 15 86 -13 27 -13 29 6 34 44 12 70 -42 48 -99 -23 -61 -8 -74 84 -74 51 0 88 5 95 12 14 14 17 704 3 727 -10 16 -95 26 -145 17 -46 -9 -54 -35 -27 -91 38 -82 17 -182 -45 -209 -18 -8 -22 -21 -27 -79 -20 -238 -339 -235 -339 3 0 152 156 227 267 128 81 -70 158 61 93 159 -53 80 -207 117 -317 77z"/> <path d="M2799 1300 c-103 -18 -215 -100 -262 -192 -39 -77 -47 -138 -47 -349 0 -226 -4 -219 110 -219 120 0 110 -21 110 229 0 271 9 290 137 316 l58 12 3 94 c4 122 -2 127 -109 109z"/> <path d="M3509 1287 c-160 -68 -233 -179 -234 -357 0 -162 64 -273 200 -343 84 -44 238 -47 325 -6 70 33 141 103 177 177 44 90 42 249 -5 344 -83 169 -298 255 -463 185z m212 -203 c85 -43 113 -172 57 -262 -62 -100 -229 -87 -278 21 -75 163 69 320 221 241z"/> </g> </svg>